<svg width="144" height="92" viewBox="0 0 144 92" fill="none" xmlns="http://www.w3.org/2000/svg">
<path d="M140.945 60.9998C147.945 41.4999 133.945 44.4998 133.945 44.4998L123.445 74.4998C123.445 74.4998 133.945 80.4997 140.945 60.9998Z" fill="#FEEADF" stroke="black"/>
<path d="M2.40625 60.9997C-4.59375 41.4998 9.94531 44.5 9.94531 44.5L19.9062 74.4997C19.9062 74.4997 9.40625 80.4995 2.40625 60.9997Z" fill="#FEEADF" stroke="black"/>
<path d="M132.943 56C139.945 28.5 105.637 0.500003 71.9472 0.5C38.2578 0.499997 3.44487 27 10.9432 56C18.4415 85 43.945 91.2184 71.9431 91.2184C99.9413 91.2184 125.941 83.5 132.943 56Z" fill="#FEEADF" stroke="black"/>
</svg>
