<svg width="162" height="88" viewBox="0 0 162 88" fill="none" xmlns="http://www.w3.org/2000/svg">
<path d="M161.5 64.9874C161.163 74.1606 150 85.4874 150 85.4874L143.5 69.9874C142.373 72.3171 141.242 73.5038 138 75.9874C136.082 65.3997 133.539 61.2986 127 56.4874C128.034 62.5854 126.974 64.858 124.5 68.4874C121.398 53.144 117.55 47.6888 110 38.9874C114.063 51.055 112.948 56.3626 109 64.9874C109.752 53.0694 107.266 46.2264 97 33.9874C94.245 47.3547 95.814 54.0514 102.5 64.9874C88.905 64.1098 83.0904 61.8942 77.5 53.4874C74.8152 58.9027 74.9821 61.9761 76.5 67.4874C66.3918 59.7003 66.4455 53.1656 68.5 40.4874C62.5037 50.1912 60.4002 56.3075 59.5 68.4874C54.0362 62.2471 52.8592 57.4971 53 47.4874C44.5086 56.7498 39.8455 62.0894 37 79.9874L31.5 72.9874C26.0817 76.3839 26.1922 80.2384 27 87.4874C21.8034 83.7831 20.0818 80.8822 19.5 73.9874C16.954 76.0805 15.5497 78.2622 14 83.9874C12.3958 73.4158 12.508 67.1876 18 54.4874C7.82938 56.2723 2.4007 55.2659 0 48.4861C9.85366 49.7011 15.8712 47.7149 19.5 43.4874C37.7158 22.4177 49.8084 13.6628 78.5 9.48737C64.8308 3.97551 57.1541 4.6875 43 13.9874C54.0223 -11.9133 106.347 4.60664 104.5 12.4874C104.5 12.4874 109.323 10.8894 112.5 10.9874C136.307 11.7216 162.35 41.8493 161.5 64.9874Z" fill="black"/>
</svg>
